<svg xmlns="http://www.w3.org/2000/svg" fill="none" viewBox="0 0 60 57"><path fill="#fff" d="M40.095 42.572c-10.72 2.082-21.088-4.913-23.17-15.633-2.082-10.72 4.913-21.088 15.633-23.17C43.278 1.685 53.646 8.68 55.728 19.4c2.082 10.72-4.913 21.088-15.633 23.17Z"/><path fill="#000" d="M37.61 44.806c-10.72 2.082-21.087-4.913-23.17-15.633-2.082-10.72 4.914-21.088 15.633-23.17 10.72-2.082 21.088 4.913 23.17 15.633 2.083 10.72-4.912 21.088-15.632 23.17Z"/><path fill="#fff" d="M19.733 13.971c10.72-2.082 21.088 4.913 23.17 15.633 2.083 10.72-4.913 21.088-15.633 23.17C16.55 54.858 6.182 47.862 4.1 37.143c-2.082-10.72 4.913-21.088 15.633-23.17Z"/><path fill="#000" d="M22.217 11.737c10.72-2.082 21.088 4.913 23.17 15.633 2.083 10.72-4.913 21.088-15.632 23.17-10.72 2.082-21.088-4.913-23.17-15.633-2.083-10.72 4.912-21.088 15.632-23.17Z"/><path fill="#fff" d="M29.674 46.124c-10.115 0-18.307-8.192-18.307-18.307 0-10.115 8.192-18.307 18.307-18.307 10.116 0 18.308 8.192 18.308 18.307 0 10.115-8.192 18.307-18.308 18.307Z"/></svg>